# File created by Blade
# Date/Time:  Mon Sep 22 17:46:01 2014
# Frame Rate: 120.000 fps
#------------------------------------------------------
:FULLY-SPECIFIED
:DEGREES
3258
root 5.130540 37.238563 4.839603 -1.693743 -38.928656 -11.305374
RightUpLeg -6.335254 -35.025568 -15.502810
RightLeg 79.184720 -0.000000 -0.000000
RightFoot -3.878501 -25.400409 13.412361
RightToeBase -5.525887 -0.000000 0.000000
LeftUpLeg 17.929496 12.663190 1.273181
LeftLeg -7.483079 -0.000000 0.000000
LeftFoot -12.949532 29.378710 -11.499308
LeftToeBase 2.081879 -0.000000 -0.000000
Spine 21.883668 -10.405745 -24.004253
RightShoulder -3.362404 -31.717183 -2.894198
RightArm 14.306117 -15.440233 73.132851
RightForeArm 9.478287 -0.000000 55.993233
RightHand -1.626181 -0.000000 -20.930351
RightHandThumb1 -24.326973 -0.000000 -32.862282
LeftShoulder -14.284791 30.521716 12.375952
LeftArm 49.927760 -45.028799 -71.869575
LeftForeArm 31.192026 -0.000000 106.168291
LeftHand -37.277093 0.000000 23.406129
LeftHandThumb1 -26.253704 0.000000 33.147579
Head 27.064700 28.875646 25.552000
3259
root 5.133732 37.238624 4.847296 -1.702029 -38.676675 -11.215450
RightUpLeg -5.895602 -33.934751 -15.782465
RightLeg 79.450072 -0.000000 -0.000000
RightFoot -3.359326 -25.336198 12.720868
RightToeBase -6.039522 -0.000000 0.000000
LeftUpLeg 17.829726 12.621143 1.233259
LeftLeg -7.396563 -0.000000 0.000000
LeftFoot -12.975733 29.114639 -11.528555
LeftToeBase 2.167095 -0.000000 -0.000000
Spine 21.839920 -10.414908 -24.016242
RightShoulder -3.359189 -31.746452 -2.914847
RightArm 14.421385 -15.708601 73.000427
RightForeArm 9.239705 -0.000000 56.151512
RightHand -1.642596 -0.000000 -20.862771
RightHandThumb1 -24.326973 -0.000000 -32.862282
LeftShoulder -14.337155 30.494419 12.343288
LeftArm 50.109468 -44.771628 -71.846989
LeftForeArm 31.131552 -0.000000 106.170009
LeftHand -37.009608 -0.000000 23.551976
LeftHandThumb1 -26.253704 0.000000 33.147579
Head 27.065142 28.608307 25.624540
3260
root 5.135625 37.238814 4.854151 -1.674269 -38.368887 -11.112099
RightUpLeg -5.462486 -32.765936 -16.037514
RightLeg 79.711349 -0.000000 -0.000000
RightFoot -3.066868 -25.318866 12.400310
RightToeBase -6.488379 -0.000000 0.000000
LeftUpLeg 17.688331 12.496470 1.157405
LeftLeg -7.349696 -0.000000 0.000000
LeftFoot -12.969823 28.933949 -11.558923
LeftToeBase 2.171473 -0.000000 -0.000000
Spine 21.740050 -10.442099 -24.015710
RightShoulder -3.434049 -31.785558 -2.900259
RightArm 14.537083 -16.031966 72.857603
RightForeArm 9.095377 -0.000000 56.286864
RightHand -1.582610 -0.000000 -20.733798
RightHandThumb1 -24.326973 -0.000000 -32.862282
LeftShoulder -14.283570 30.408271 12.361379
LeftArm 50.206752 -44.577127 -71.828429
LeftForeArm 31.268652 -0.000000 106.224729
LeftHand -36.996345 0.000000 23.362096
LeftHandThumb1 -26.253704 0.000000 33.147579
Head 27.095545 28.295891 25.753960
3261
root 5.141557 37.237612 4.863472 -1.647132 -37.941677 -10.987245
RightUpLeg -4.943827 -31.670578 -16.407514
RightLeg 80.005270 -0.000000 -0.000000
RightFoot -3.096112 -25.194091 12.498006
RightToeBase -6.409073 -0.000000 0.000000
LeftUpLeg 17.527975 12.272932 1.045201
LeftLeg -7.324666 -0.000000 0.000000
LeftFoot -12.911464 28.779413 -11.505366
LeftToeBase 2.206443 -0.000000 -0.000000
Spine 21.659763 -10.547078 -24.014717
RightShoulder -3.518281 -31.848461 -2.880451
RightArm 14.642075 -16.331057 72.721473
RightForeArm 8.940516 -0.000000 56.412968
RightHand -1.488692 0.000000 -20.606187
RightHandThumb1 -24.326973 -0.000000 -32.862282
LeftShoulder -14.171628 30.349545 12.398682
LeftArm 50.263622 -44.342979 -71.737044
LeftForeArm 31.187967 -0.000000 106.265389
LeftHand -36.953371 0.000000 23.459978
LeftHandThumb1 -26.253704 0.000000 33.147579
Head 27.134370 27.920885 25.829733
3262
root 5.144303 37.237003 4.877838 -1.616289 -37.474129 -10.881179
RightUpLeg -4.352577 -30.529729 -16.797082
RightLeg 80.285401 -0.000000 -0.000000
RightFoot -3.199917 -25.115397 12.662793
RightToeBase -6.173395 -0.000000 0.000000
LeftUpLeg 17.402192 12.035698 0.951675
LeftLeg -7.344719 -0.000000 0.000000
LeftFoot -12.818274 28.627325 -11.421304
LeftToeBase 2.206069 -0.000000 -0.000000
Spine 21.571415 -10.701717 -24.006739
RightShoulder -3.584558 -31.967597 -2.853241
RightArm 14.796435 -16.665390 72.516820
RightForeArm 8.852025 -0.000000 56.526429
RightHand -1.456922 -0.000000 -20.588093
RightHandThumb1 -24.326973 -0.000000 -32.862282
LeftShoulder -14.078604 30.346168 12.426600
LeftArm 50.436275 -44.119787 -71.803058
LeftForeArm 31.397691 0.000000 106.330681
LeftHand -37.077971 -0.000000 23.389905
LeftHandThumb1 -26.253704 0.000000 33.147579
Head 27.224491 27.484362 25.869721
3263
root 5.149928 37.235116 4.896010 -1.594758 -36.981257 -10.756394
RightUpLeg -3.714193 -29.361741 -17.230478
RightLeg 80.563050 -0.000000 -0.000000
RightFoot -2.996074 -25.192152 12.398060
RightToeBase -6.369517 -0.000000 0.000000
LeftUpLeg 17.278163 11.848501 0.847293
LeftLeg -7.371166 -0.000000 0.000000
LeftFoot -12.724825 28.421429 -11.329520
LeftToeBase 2.230900 -0.000000 -0.000000
Spine 21.497150 -10.910485 -23.996023
RightShoulder -3.662776 -32.076577 -2.848389
RightArm 14.974644 -17.015021 72.302228
RightForeArm 8.595704 -0.000000 56.634271
RightHand -1.502284 -0.000000 -20.388092
RightHandThumb1 -24.326973 -0.000000 -32.862282
LeftShoulder -14.046730 30.333521 12.365854
LeftArm 50.583273 -43.849975 -71.749811
LeftForeArm 31.384792 -0.000000 106.343195
LeftHand -36.774189 0.000000 23.427830
LeftHandThumb1 -26.253704 0.000000 33.147579
Head 27.301369 27.122652 25.904859
3264
root 5.159351 37.230609 4.912575 -1.520521 -36.453361 -10.654814
RightUpLeg -3.089374 -28.159706 -17.637890
RightLeg 80.867740 -0.000000 -0.000000
RightFoot -2.821589 -25.311125 12.274060
RightToeBase -6.391417 -0.000000 0.000000
LeftUpLeg 17.126946 11.578755 0.726801
LeftLeg -7.463989 -0.000000 0.000000
LeftFoot -12.642673 28.324047 -11.269469
LeftToeBase 2.270234 -0.000000 -0.000000
Spine 21.384444 -11.158714 -23.929250
RightShoulder -3.707098 -32.136606 -2.894386
RightArm 15.068019 -17.321081 72.164151
RightForeArm 8.326239 -0.000000 56.708831
RightHand -1.545864 0.000000 -20.096708
RightHandThumb1 -24.326973 -0.000000 -32.862282
LeftShoulder -13.988605 30.352547 12.280909
LeftArm 50.762941 -43.636577 -71.744772
LeftForeArm 31.607065 0.000000 106.404530
LeftHand -37.088203 0.000000 23.283556
LeftHandThumb1 -26.253704 0.000000 33.147579
Head 27.414821 26.779440 25.998947
3265
root 5.167577 37.226526 4.932451 -1.452141 -35.885467 -10.533376
RightUpLeg -2.421453 -26.880827 -18.049186
RightLeg 81.185980 -0.000000 -0.000000
RightFoot -2.690585 -25.469461 12.170718
RightToeBase -6.366601 -0.000000 0.000000
LeftUpLeg 16.940133 11.368786 0.611852
LeftLeg -7.465102 -0.000000 0.000000
LeftFoot -12.553929 28.093510 -11.133856
LeftToeBase 2.275117 -0.000000 -0.000000
Spine 21.261851 -11.410346 -23.871561
RightShoulder -3.728194 -32.194675 -2.904954
RightArm 15.066844 -17.563056 72.039562
RightForeArm 7.856284 -0.000000 56.832696
RightHand -1.699099 -0.000000 -19.876974
RightHandThumb1 -24.326973 -0.000000 -32.862282
LeftShoulder -13.961945 30.414424 12.177472
LeftArm 51.089426 -43.302566 -71.768007
LeftForeArm 31.599627 -0.000000 106.377657
LeftHand -37.142759 -0.000000 23.226104
LeftHandThumb1 -26.253704 0.000000 33.147579
Head 27.492082 26.323270 25.965248
3266
root 5.171423 37.222967 4.953297 -1.378838 -35.301600 -10.457279
RightUpLeg -1.675317 -25.531980 -18.430741
RightLeg 81.527661 -0.000000 -0.000000
RightFoot -2.543837 -25.620909 12.066211
RightToeBase -6.537483 -0.000000 0.000000
LeftUpLeg 16.784905 11.167170 0.555699
LeftLeg -7.467811 -0.000000 0.000000
LeftFoot -12.467463 27.834280 -10.977991
LeftToeBase 2.285327 -0.000000 -0.000000
Spine 21.148547 -11.641249 -23.768298
RightShoulder -3.805811 -32.315542 -2.880261
RightArm 15.151670 -17.851999 71.846328
RightForeArm 7.614517 -0.000000 56.922724
RightHand -1.700488 -0.000000 -19.600495
RightHandThumb1 -24.326973 -0.000000 -32.862282
LeftShoulder -13.868146 30.452478 12.116992
LeftArm 51.368422 -42.993948 -71.824768
LeftForeArm 31.751970 -0.000000 106.351085
LeftHand -36.743309 0.000000 23.300981
LeftHandThumb1 -26.253704 0.000000 33.147579
Head 27.604359 25.864729 26.009964
3267
root 5.175689 37.220243 4.975236 -1.308276 -34.685283 -10.381332
RightUpLeg -0.885841 -24.161011 -18.807227
RightLeg 81.884093 -0.000000 -0.000000
RightFoot -2.333944 -25.848280 11.813200
RightToeBase -6.999934 -0.000000 0.000000
LeftUpLeg 16.637436 10.948546 0.503484
LeftLeg -7.488120 -0.000000 0.000000
LeftFoot -12.374369 27.557179 -10.847305
LeftToeBase 2.179068 -0.000000 -0.000000
Spine 21.055164 -11.912133 -23.656600
RightShoulder -3.787054 -32.470502 -2.881004
RightArm 15.183720 -18.026822 71.707306
RightForeArm 7.355235 -0.000000 57.040735
RightHand -1.665730 -0.000000 -19.367133
RightHandThumb1 -24.326973 -0.000000 -32.862282
LeftShoulder -13.816563 30.448179 12.002824
LeftArm 51.619843 -42.623133 -71.765188
LeftForeArm 31.845418 0.000000 106.301893
LeftHand -36.802476 0.000000 22.980667
LeftHandThumb1 -26.253704 0.000000 33.147579
Head 27.715914 25.437731 26.037083
3268
root 5.175536 37.216571 5.002079 -1.237737 -34.056001 -10.303054
RightUpLeg -0.046972 -22.721339 -19.165247
RightLeg 82.289216 -0.000000 -0.000000
RightFoot -2.337699 -26.102657 11.911334
RightToeBase -6.514541 -0.000000 0.000000
LeftUpLeg 16.512460 10.753486 0.461342
LeftLeg -7.524229 -0.000000 0.000000
LeftFoot -12.280172 27.215151 -10.714405
LeftToeBase 2.250714 -0.000000 -0.000000
Spine 20.924960 -12.137553 -23.524330
RightShoulder -3.884940 -32.633395 -2.825127
RightArm 15.242254 -18.274409 71.526734
RightForeArm 7.004500 -0.000000 57.116999
RightHand -1.854898 -0.000000 -19.212405
RightHandThumb1 -24.326973 -0.000000 -32.862282
LeftShoulder -13.701512 30.416394 11.948266
LeftArm 51.787804 -42.177126 -71.619836
LeftForeArm 31.824495 -0.000000 106.211291
LeftHand -36.770807 -0.000000 23.413875
LeftHandThumb1 -26.253704 0.000000 33.147579
Head 27.853130 24.946187 26.121078
3269
root 5.178214 37.214599 5.022714 -1.139028 -33.384252 -10.245811
RightUpLeg 0.796325 -21.277267 -19.415251
RightLeg 82.685428 -0.000000 -0.000000
RightFoot -2.258920 -26.520171 11.827033
RightToeBase -6.481699 -0.000000 0.000000
LeftUpLeg 16.337673 10.526936 0.435186
LeftLeg -7.521937 -0.000000 0.000000
LeftFoot -12.184462 26.892858 -10.542715
LeftToeBase 2.188611 -0.000000 -0.000000
Spine 20.801382 -12.418000 -23.381625
RightShoulder -3.960546 -32.788285 -2.776792
RightArm 15.325030 -18.560645 71.324676
RightForeArm 6.935137 -0.000000 57.135337
RightHand -1.804886 -0.000000 -19.066314
RightHandThumb1 -24.326973 -0.000000 -32.862282
LeftShoulder -13.585483 30.419419 11.922992
LeftArm 51.986607 -41.749275 -71.581428
LeftForeArm 32.069706 -0.000000 106.159806
LeftHand -36.744741 -0.000000 23.287848
LeftHandThumb1 -26.253704 0.000000 33.147579
Head 28.013272 24.468760 26.277604
